<mxfile host="Electron" modified="2024-03-09T07:04:10.735Z" agent="Mozilla/5.0 (Windows NT 10.0; Win64; x64) AppleWebKit/537.36 (KHTML, like Gecko) draw.io/23.1.5 Chrome/120.0.6099.109 Electron/28.1.0 Safari/537.36" etag="PU4dWLu9vjhqDn5rXTNz" version="23.1.5" type="device">
  <diagram name="Page-1" id="2BeZWAeP0Um-ZPzaI-LJ">
    <mxGraphModel dx="2500" dy="2538" grid="0" gridSize="10" guides="1" tooltips="1" connect="1" arrows="1" fold="1" page="0" pageScale="1" pageWidth="827" pageHeight="1169" math="0" shadow="0">
      <root>
        <mxCell id="0" />
        <mxCell id="1" parent="0" />
        <mxCell id="dPlTRqJiR5S6yLZnMPy2-16" value="Utilisateur" style="swimlane;fontStyle=1;align=center;verticalAlign=top;childLayout=stackLayout;horizontal=1;startSize=26;horizontalStack=0;resizeParent=1;resizeLast=0;collapsible=1;marginBottom=0;rounded=0;shadow=0;strokeWidth=1;fillColor=#F2CC8F;fontColor=#393C56;strokeColor=#E07A5F;labelBackgroundColor=none;fontFamily=Times New Roman;" vertex="1" parent="1">
          <mxGeometry x="197" y="-246" width="276" height="383" as="geometry">
            <mxRectangle x="230" y="140" width="160" height="26" as="alternateBounds" />
          </mxGeometry>
        </mxCell>
        <mxCell id="dPlTRqJiR5S6yLZnMPy2-17" value="-  ID_Utilisateur                    : long" style="text;align=left;verticalAlign=bottom;spacingLeft=4;spacingRight=4;overflow=hidden;rotatable=0;points=[[0,0.5],[1,0.5]];portConstraint=eastwest;labelBackgroundColor=none;fontColor=#393C56;strokeColor=none;fontStyle=0;fontFamily=Helvetica;" vertex="1" parent="dPlTRqJiR5S6yLZnMPy2-16">
          <mxGeometry y="26" width="276" height="26" as="geometry" />
        </mxCell>
        <mxCell id="dPlTRqJiR5S6yLZnMPy2-18" value="-  Nom                                 : String" style="text;align=left;verticalAlign=top;spacingLeft=4;spacingRight=4;overflow=hidden;rotatable=0;points=[[0,0.5],[1,0.5]];portConstraint=eastwest;rounded=0;shadow=0;html=0;labelBackgroundColor=none;fontColor=#393C56;fontFamily=Helvetica;" vertex="1" parent="dPlTRqJiR5S6yLZnMPy2-16">
          <mxGeometry y="52" width="276" height="22" as="geometry" />
        </mxCell>
        <mxCell id="dPlTRqJiR5S6yLZnMPy2-19" value="-  Prénom                            : String" style="text;align=left;verticalAlign=top;spacingLeft=4;spacingRight=4;overflow=hidden;rotatable=0;points=[[0,0.5],[1,0.5]];portConstraint=eastwest;rounded=0;shadow=0;html=0;labelBackgroundColor=none;fontColor=#393C56;" vertex="1" parent="dPlTRqJiR5S6yLZnMPy2-16">
          <mxGeometry y="74" width="276" height="26" as="geometry" />
        </mxCell>
        <mxCell id="dPlTRqJiR5S6yLZnMPy2-20" value="-  Email                                : String" style="text;align=left;verticalAlign=top;spacingLeft=4;spacingRight=4;overflow=hidden;rotatable=0;points=[[0,0.5],[1,0.5]];portConstraint=eastwest;rounded=0;shadow=0;html=0;labelBackgroundColor=none;fontColor=#393C56;" vertex="1" parent="dPlTRqJiR5S6yLZnMPy2-16">
          <mxGeometry y="100" width="276" height="26" as="geometry" />
        </mxCell>
        <mxCell id="dPlTRqJiR5S6yLZnMPy2-21" value="-  Mot_de_Passe                 : String" style="text;align=left;verticalAlign=top;spacingLeft=4;spacingRight=4;overflow=hidden;rotatable=0;points=[[0,0.5],[1,0.5]];portConstraint=eastwest;rounded=0;shadow=0;html=0;labelBackgroundColor=none;fontColor=#393C56;" vertex="1" parent="dPlTRqJiR5S6yLZnMPy2-16">
          <mxGeometry y="126" width="276" height="26" as="geometry" />
        </mxCell>
        <mxCell id="dPlTRqJiR5S6yLZnMPy2-22" value="-  Telephone                        : Int" style="text;align=left;verticalAlign=top;spacingLeft=4;spacingRight=4;overflow=hidden;rotatable=0;points=[[0,0.5],[1,0.5]];portConstraint=eastwest;rounded=0;shadow=0;html=0;labelBackgroundColor=none;fontColor=#393C56;" vertex="1" parent="dPlTRqJiR5S6yLZnMPy2-16">
          <mxGeometry y="152" width="276" height="26" as="geometry" />
        </mxCell>
        <mxCell id="dPlTRqJiR5S6yLZnMPy2-23" value="-  Rue                                   : String" style="text;align=left;verticalAlign=top;spacingLeft=4;spacingRight=4;overflow=hidden;rotatable=0;points=[[0,0.5],[1,0.5]];portConstraint=eastwest;rounded=0;shadow=0;html=0;labelBackgroundColor=none;fontColor=#393C56;" vertex="1" parent="dPlTRqJiR5S6yLZnMPy2-16">
          <mxGeometry y="178" width="276" height="26" as="geometry" />
        </mxCell>
        <mxCell id="dPlTRqJiR5S6yLZnMPy2-24" value="-  Code_Postale                   : String" style="text;align=left;verticalAlign=top;spacingLeft=4;spacingRight=4;overflow=hidden;rotatable=0;points=[[0,0.5],[1,0.5]];portConstraint=eastwest;rounded=0;shadow=0;html=0;labelBackgroundColor=none;fontColor=#393C56;" vertex="1" parent="dPlTRqJiR5S6yLZnMPy2-16">
          <mxGeometry y="204" width="276" height="26" as="geometry" />
        </mxCell>
        <mxCell id="dPlTRqJiR5S6yLZnMPy2-25" value="-  Ville                                   : String" style="text;align=left;verticalAlign=top;spacingLeft=4;spacingRight=4;overflow=hidden;rotatable=0;points=[[0,0.5],[1,0.5]];portConstraint=eastwest;rounded=0;shadow=0;html=0;labelBackgroundColor=none;fontColor=#393C56;" vertex="1" parent="dPlTRqJiR5S6yLZnMPy2-16">
          <mxGeometry y="230" width="276" height="26" as="geometry" />
        </mxCell>
        <mxCell id="dPlTRqJiR5S6yLZnMPy2-26" value="-  Role                                   : String" style="text;align=left;verticalAlign=top;spacingLeft=4;spacingRight=4;overflow=hidden;rotatable=0;points=[[0,0.5],[1,0.5]];portConstraint=eastwest;rounded=0;shadow=0;html=0;labelBackgroundColor=none;fontColor=#393C56;" vertex="1" parent="dPlTRqJiR5S6yLZnMPy2-16">
          <mxGeometry y="256" width="276" height="26" as="geometry" />
        </mxCell>
        <mxCell id="dPlTRqJiR5S6yLZnMPy2-27" value="" style="line;html=1;strokeWidth=1;align=left;verticalAlign=middle;spacingTop=-1;spacingLeft=3;spacingRight=3;rotatable=0;labelPosition=right;points=[];portConstraint=eastwest;labelBackgroundColor=none;fillColor=#F2CC8F;strokeColor=#E07A5F;fontColor=#393C56;" vertex="1" parent="dPlTRqJiR5S6yLZnMPy2-16">
          <mxGeometry y="282" width="276" height="8" as="geometry" />
        </mxCell>
        <mxCell id="dPlTRqJiR5S6yLZnMPy2-28" value="+&amp;nbsp; S&#39;authentifier()&amp;nbsp; &amp;nbsp; &amp;nbsp; &amp;nbsp; &amp;nbsp; &amp;nbsp; &amp;nbsp; &amp;nbsp; &amp;nbsp; &amp;nbsp; &amp;nbsp; &amp;nbsp; &amp;nbsp; &amp;nbsp;&amp;nbsp;" style="text;html=1;align=center;verticalAlign=middle;resizable=0;points=[];autosize=1;strokeColor=none;fillColor=none;fontSize=16;fontColor=#393C56;" vertex="1" parent="dPlTRqJiR5S6yLZnMPy2-16">
          <mxGeometry y="290" width="276" height="31" as="geometry" />
        </mxCell>
        <mxCell id="dPlTRqJiR5S6yLZnMPy2-29" value="+ Consulter Compte()&amp;nbsp; &amp;nbsp; &amp;nbsp; &amp;nbsp; &amp;nbsp; &amp;nbsp; &amp;nbsp; &amp;nbsp; &amp;nbsp; &amp;nbsp; &amp;nbsp;" style="text;html=1;align=center;verticalAlign=middle;resizable=0;points=[];autosize=1;strokeColor=none;fillColor=none;fontSize=16;fontColor=#393C56;" vertex="1" parent="dPlTRqJiR5S6yLZnMPy2-16">
          <mxGeometry y="321" width="276" height="31" as="geometry" />
        </mxCell>
        <mxCell id="dPlTRqJiR5S6yLZnMPy2-30" value="&lt;div&gt;&amp;nbsp; &amp;nbsp;+ Consulter Intervention()&amp;nbsp; &amp;nbsp; &amp;nbsp; &amp;nbsp; &amp;nbsp; &amp;nbsp; &amp;nbsp; &amp;nbsp; &amp;nbsp;&lt;/div&gt;" style="text;html=1;align=center;verticalAlign=middle;resizable=0;points=[];autosize=1;strokeColor=none;fillColor=none;fontSize=16;fontColor=#393C56;" vertex="1" parent="dPlTRqJiR5S6yLZnMPy2-16">
          <mxGeometry y="352" width="276" height="31" as="geometry" />
        </mxCell>
        <mxCell id="dPlTRqJiR5S6yLZnMPy2-31" value="Manager" style="swimlane;fontStyle=0;align=center;verticalAlign=top;childLayout=stackLayout;horizontal=1;startSize=26;horizontalStack=0;resizeParent=1;resizeLast=0;collapsible=1;marginBottom=0;rounded=0;shadow=0;strokeWidth=1;fillColor=#F2CC8F;fontColor=#393C56;strokeColor=#E07A5F;labelBackgroundColor=none;" vertex="1" parent="1">
          <mxGeometry x="-135" y="78" width="239" height="153" as="geometry">
            <mxRectangle x="120" y="360" width="160" height="26" as="alternateBounds" />
          </mxGeometry>
        </mxCell>
        <mxCell id="dPlTRqJiR5S6yLZnMPy2-32" value="Number" style="text;align=left;verticalAlign=top;spacingLeft=4;spacingRight=4;overflow=hidden;rotatable=0;points=[[0,0.5],[1,0.5]];portConstraint=eastwest;labelBackgroundColor=none;fontColor=#393C56;" vertex="1" parent="dPlTRqJiR5S6yLZnMPy2-31">
          <mxGeometry y="26" width="239" height="26" as="geometry" />
        </mxCell>
        <mxCell id="dPlTRqJiR5S6yLZnMPy2-33" value="" style="line;html=1;strokeWidth=1;align=left;verticalAlign=middle;spacingTop=-1;spacingLeft=3;spacingRight=3;rotatable=0;labelPosition=right;points=[];portConstraint=eastwest;labelBackgroundColor=none;fillColor=#F2CC8F;strokeColor=#E07A5F;fontColor=#393C56;" vertex="1" parent="dPlTRqJiR5S6yLZnMPy2-31">
          <mxGeometry y="52" width="239" height="8" as="geometry" />
        </mxCell>
        <mxCell id="dPlTRqJiR5S6yLZnMPy2-34" value="&lt;span style=&quot;color: rgb(57, 60, 86);&quot;&gt;+Confirmer_Intervention&lt;/span&gt;" style="text;html=1;align=center;verticalAlign=middle;resizable=0;points=[];autosize=1;strokeColor=none;fillColor=none;fontSize=16;" vertex="1" parent="dPlTRqJiR5S6yLZnMPy2-31">
          <mxGeometry y="60" width="239" height="31" as="geometry" />
        </mxCell>
        <mxCell id="dPlTRqJiR5S6yLZnMPy2-35" value="+Supprimer_Intervention&amp;nbsp;" style="text;html=1;align=center;verticalAlign=middle;resizable=0;points=[];autosize=1;strokeColor=none;fillColor=none;fontSize=16;" vertex="1" parent="dPlTRqJiR5S6yLZnMPy2-31">
          <mxGeometry y="91" width="239" height="31" as="geometry" />
        </mxCell>
        <mxCell id="dPlTRqJiR5S6yLZnMPy2-36" style="text;html=1;align=center;verticalAlign=middle;resizable=0;points=[];autosize=1;strokeColor=none;fillColor=none;fontSize=16;" vertex="1" parent="dPlTRqJiR5S6yLZnMPy2-31">
          <mxGeometry y="122" width="239" height="31" as="geometry" />
        </mxCell>
        <mxCell id="dPlTRqJiR5S6yLZnMPy2-37" style="edgeStyle=orthogonalEdgeStyle;rounded=0;orthogonalLoop=1;jettySize=auto;html=1;entryX=1;entryY=0.5;entryDx=0;entryDy=0;endArrow=block;endFill=0;labelBackgroundColor=none;strokeColor=#E07A5F;fontColor=default;" edge="1" parent="1" source="dPlTRqJiR5S6yLZnMPy2-38" target="dPlTRqJiR5S6yLZnMPy2-26">
          <mxGeometry relative="1" as="geometry" />
        </mxCell>
        <mxCell id="dPlTRqJiR5S6yLZnMPy2-38" value="Technicien" style="swimlane;fontStyle=0;align=center;verticalAlign=top;childLayout=stackLayout;horizontal=1;startSize=26;horizontalStack=0;resizeParent=1;resizeLast=0;collapsible=1;marginBottom=0;rounded=0;shadow=0;strokeWidth=1;fillColor=#F2CC8F;fontColor=#393C56;strokeColor=#E07A5F;labelBackgroundColor=none;" vertex="1" parent="1">
          <mxGeometry x="639" y="-218" width="170" height="170" as="geometry">
            <mxRectangle x="550" y="140" width="160" height="26" as="alternateBounds" />
          </mxGeometry>
        </mxCell>
        <mxCell id="dPlTRqJiR5S6yLZnMPy2-39" value="-&amp;nbsp; Specialite&amp;nbsp; &amp;nbsp;: String" style="text;html=1;align=center;verticalAlign=bottom;resizable=0;points=[];autosize=1;strokeColor=none;fillColor=none;fontSize=16;fontColor=#393C56;" vertex="1" parent="dPlTRqJiR5S6yLZnMPy2-38">
          <mxGeometry y="26" width="170" height="31" as="geometry" />
        </mxCell>
        <mxCell id="dPlTRqJiR5S6yLZnMPy2-40" value="Disponibilités&amp;nbsp; &amp;nbsp;:String" style="text;html=1;align=center;verticalAlign=bottom;resizable=0;points=[];autosize=1;strokeColor=none;fillColor=none;fontSize=16;fontColor=#393C56;" vertex="1" parent="dPlTRqJiR5S6yLZnMPy2-38">
          <mxGeometry y="57" width="170" height="31" as="geometry" />
        </mxCell>
        <mxCell id="dPlTRqJiR5S6yLZnMPy2-41" value="" style="line;html=1;strokeWidth=1;align=left;verticalAlign=middle;spacingTop=-1;spacingLeft=3;spacingRight=3;rotatable=0;labelPosition=right;points=[];portConstraint=eastwest;labelBackgroundColor=none;fillColor=#F2CC8F;strokeColor=#E07A5F;fontColor=#393C56;" vertex="1" parent="dPlTRqJiR5S6yLZnMPy2-38">
          <mxGeometry y="88" width="170" height="8" as="geometry" />
        </mxCell>
        <mxCell id="dPlTRqJiR5S6yLZnMPy2-42" value="Administrateur" style="swimlane;fontStyle=0;align=center;verticalAlign=top;childLayout=stackLayout;horizontal=1;startSize=49;horizontalStack=0;resizeParent=1;resizeLast=0;collapsible=1;marginBottom=0;rounded=0;shadow=0;strokeWidth=1;fillColor=#F2CC8F;fontColor=#393C56;strokeColor=#E07A5F;labelBackgroundColor=none;" vertex="1" parent="1">
          <mxGeometry x="-205" y="-817" width="223" height="181" as="geometry">
            <mxRectangle x="340" y="380" width="170" height="26" as="alternateBounds" />
          </mxGeometry>
        </mxCell>
        <mxCell id="dPlTRqJiR5S6yLZnMPy2-43" style="text;html=1;align=center;verticalAlign=middle;resizable=0;points=[];autosize=1;strokeColor=none;fillColor=none;fontSize=16;fontColor=#393C56;" vertex="1" parent="dPlTRqJiR5S6yLZnMPy2-42">
          <mxGeometry y="49" width="223" height="31" as="geometry" />
        </mxCell>
        <mxCell id="dPlTRqJiR5S6yLZnMPy2-44" value="" style="line;html=1;strokeWidth=1;align=left;verticalAlign=middle;spacingTop=-1;spacingLeft=3;spacingRight=3;rotatable=0;labelPosition=right;points=[];portConstraint=eastwest;labelBackgroundColor=none;fillColor=#F2CC8F;strokeColor=#E07A5F;fontColor=#393C56;" vertex="1" parent="dPlTRqJiR5S6yLZnMPy2-42">
          <mxGeometry y="80" width="223" height="8" as="geometry" />
        </mxCell>
        <mxCell id="dPlTRqJiR5S6yLZnMPy2-45" value="+Modifier_Manager()" style="text;html=1;align=center;verticalAlign=middle;resizable=0;points=[];autosize=1;strokeColor=none;fillColor=none;fontSize=16;fontColor=#393C56;" vertex="1" parent="dPlTRqJiR5S6yLZnMPy2-42">
          <mxGeometry y="88" width="223" height="31" as="geometry" />
        </mxCell>
        <mxCell id="dPlTRqJiR5S6yLZnMPy2-46" value="+Supprimer_Manager ()" style="text;html=1;align=center;verticalAlign=middle;resizable=0;points=[];autosize=1;strokeColor=none;fillColor=none;fontSize=16;fontColor=#393C56;" vertex="1" parent="dPlTRqJiR5S6yLZnMPy2-42">
          <mxGeometry y="119" width="223" height="31" as="geometry" />
        </mxCell>
        <mxCell id="dPlTRqJiR5S6yLZnMPy2-47" value="+Ajouter_Manager()" style="text;html=1;align=center;verticalAlign=middle;resizable=0;points=[];autosize=1;strokeColor=none;fillColor=none;fontSize=16;fontColor=#393C56;" vertex="1" parent="dPlTRqJiR5S6yLZnMPy2-42">
          <mxGeometry y="150" width="223" height="31" as="geometry" />
        </mxCell>
        <mxCell id="dPlTRqJiR5S6yLZnMPy2-48" style="edgeStyle=orthogonalEdgeStyle;rounded=0;orthogonalLoop=1;jettySize=auto;html=1;entryX=0.011;entryY=-0.115;entryDx=0;entryDy=0;entryPerimeter=0;endArrow=block;endFill=0;labelBackgroundColor=none;strokeColor=#E07A5F;fontColor=default;" edge="1" parent="1" source="dPlTRqJiR5S6yLZnMPy2-42" target="dPlTRqJiR5S6yLZnMPy2-26">
          <mxGeometry relative="1" as="geometry" />
        </mxCell>
        <mxCell id="dPlTRqJiR5S6yLZnMPy2-49" value="Produit" style="swimlane;fontStyle=2;align=center;verticalAlign=top;childLayout=stackLayout;horizontal=1;startSize=32;horizontalStack=0;resizeParent=1;resizeLast=0;collapsible=1;marginBottom=0;rounded=0;shadow=0;strokeWidth=1;fillColor=#F2CC8F;fontColor=#393C56;strokeColor=#E07A5F;labelBackgroundColor=none;" vertex="1" parent="1">
          <mxGeometry x="1108" y="-237" width="211" height="144" as="geometry">
            <mxRectangle x="230" y="140" width="160" height="26" as="alternateBounds" />
          </mxGeometry>
        </mxCell>
        <mxCell id="dPlTRqJiR5S6yLZnMPy2-50" value="Name" style="text;align=left;verticalAlign=top;spacingLeft=4;spacingRight=4;overflow=hidden;rotatable=0;points=[[0,0.5],[1,0.5]];portConstraint=eastwest;labelBackgroundColor=none;fontColor=#393C56;" vertex="1" parent="dPlTRqJiR5S6yLZnMPy2-49">
          <mxGeometry y="32" width="211" height="26" as="geometry" />
        </mxCell>
        <mxCell id="dPlTRqJiR5S6yLZnMPy2-51" value="Phone Number" style="text;align=left;verticalAlign=top;spacingLeft=4;spacingRight=4;overflow=hidden;rotatable=0;points=[[0,0.5],[1,0.5]];portConstraint=eastwest;rounded=0;shadow=0;html=0;labelBackgroundColor=none;fontColor=#393C56;" vertex="1" parent="dPlTRqJiR5S6yLZnMPy2-49">
          <mxGeometry y="58" width="211" height="26" as="geometry" />
        </mxCell>
        <mxCell id="dPlTRqJiR5S6yLZnMPy2-52" value="Email Address" style="text;align=left;verticalAlign=top;spacingLeft=4;spacingRight=4;overflow=hidden;rotatable=0;points=[[0,0.5],[1,0.5]];portConstraint=eastwest;rounded=0;shadow=0;html=0;labelBackgroundColor=none;fontColor=#393C56;" vertex="1" parent="dPlTRqJiR5S6yLZnMPy2-49">
          <mxGeometry y="84" width="211" height="26" as="geometry" />
        </mxCell>
        <mxCell id="dPlTRqJiR5S6yLZnMPy2-53" value="" style="line;html=1;strokeWidth=1;align=left;verticalAlign=middle;spacingTop=-1;spacingLeft=3;spacingRight=3;rotatable=0;labelPosition=right;points=[];portConstraint=eastwest;labelBackgroundColor=none;fillColor=#F2CC8F;strokeColor=#E07A5F;fontColor=#393C56;" vertex="1" parent="dPlTRqJiR5S6yLZnMPy2-49">
          <mxGeometry y="110" width="211" height="8" as="geometry" />
        </mxCell>
        <mxCell id="dPlTRqJiR5S6yLZnMPy2-54" value="Purchase Parking Pass" style="text;align=left;verticalAlign=top;spacingLeft=4;spacingRight=4;overflow=hidden;rotatable=0;points=[[0,0.5],[1,0.5]];portConstraint=eastwest;labelBackgroundColor=none;fontColor=#393C56;" vertex="1" parent="dPlTRqJiR5S6yLZnMPy2-49">
          <mxGeometry y="118" width="211" height="26" as="geometry" />
        </mxCell>
        <mxCell id="dPlTRqJiR5S6yLZnMPy2-55" style="edgeStyle=orthogonalEdgeStyle;rounded=0;orthogonalLoop=1;jettySize=auto;html=1;exitX=1;exitY=0;exitDx=0;exitDy=0;entryX=0.25;entryY=1;entryDx=0;entryDy=0;fontSize=12;startSize=8;endSize=8;endArrow=none;endFill=0;fillColor=#ffe6cc;strokeColor=#d79b00;" edge="1" parent="1" source="dPlTRqJiR5S6yLZnMPy2-57" target="dPlTRqJiR5S6yLZnMPy2-31">
          <mxGeometry relative="1" as="geometry">
            <Array as="points">
              <mxPoint x="-93" y="366" />
              <mxPoint x="406" y="366" />
            </Array>
          </mxGeometry>
        </mxCell>
        <mxCell id="dPlTRqJiR5S6yLZnMPy2-56" value="gérer&amp;nbsp;" style="edgeLabel;html=1;align=center;verticalAlign=middle;resizable=0;points=[];fontSize=12;" connectable="0" vertex="1" parent="dPlTRqJiR5S6yLZnMPy2-55">
          <mxGeometry x="-0.0618" y="1" relative="1" as="geometry">
            <mxPoint as="offset" />
          </mxGeometry>
        </mxCell>
        <mxCell id="dPlTRqJiR5S6yLZnMPy2-57" value="Intervention" style="swimlane;fontStyle=0;align=center;verticalAlign=top;childLayout=stackLayout;horizontal=1;startSize=26;horizontalStack=0;resizeParent=1;resizeLast=0;collapsible=1;marginBottom=0;rounded=0;shadow=0;strokeWidth=1;fillColor=#F2CC8F;fontColor=#393C56;strokeColor=#E07A5F;labelBackgroundColor=none;" vertex="1" parent="1">
          <mxGeometry x="-299" y="647" width="219" height="407" as="geometry">
            <mxRectangle x="120" y="360" width="160" height="26" as="alternateBounds" />
          </mxGeometry>
        </mxCell>
        <mxCell id="dPlTRqJiR5S6yLZnMPy2-58" value="ID_Intervention        :Long" style="text;align=left;verticalAlign=top;spacingLeft=4;spacingRight=4;overflow=hidden;rotatable=0;points=[[0,0.5],[1,0.5]];portConstraint=eastwest;labelBackgroundColor=none;fontColor=#393C56;" vertex="1" parent="dPlTRqJiR5S6yLZnMPy2-57">
          <mxGeometry y="26" width="219" height="26" as="geometry" />
        </mxCell>
        <mxCell id="dPlTRqJiR5S6yLZnMPy2-59" value="Date_Intervention     :Date" style="text;align=left;verticalAlign=top;spacingLeft=4;spacingRight=4;overflow=hidden;rotatable=0;points=[[0,0.5],[1,0.5]];portConstraint=eastwest;rounded=0;shadow=0;html=0;labelBackgroundColor=none;fontColor=#393C56;" vertex="1" parent="dPlTRqJiR5S6yLZnMPy2-57">
          <mxGeometry y="52" width="219" height="26" as="geometry" />
        </mxCell>
        <mxCell id="dPlTRqJiR5S6yLZnMPy2-60" value="Heure_Intervention   :float" style="text;align=left;verticalAlign=top;spacingLeft=4;spacingRight=4;overflow=hidden;rotatable=0;points=[[0,0.5],[1,0.5]];portConstraint=eastwest;rounded=0;shadow=0;html=0;labelBackgroundColor=none;fontColor=#393C56;" vertex="1" parent="dPlTRqJiR5S6yLZnMPy2-57">
          <mxGeometry y="78" width="219" height="26" as="geometry" />
        </mxCell>
        <mxCell id="dPlTRqJiR5S6yLZnMPy2-61" value="Type_Intervention     :String" style="text;align=left;verticalAlign=top;spacingLeft=4;spacingRight=4;overflow=hidden;rotatable=0;points=[[0,0.5],[1,0.5]];portConstraint=eastwest;rounded=0;shadow=0;html=0;labelBackgroundColor=none;fontColor=#393C56;" vertex="1" parent="dPlTRqJiR5S6yLZnMPy2-57">
          <mxGeometry y="104" width="219" height="26" as="geometry" />
        </mxCell>
        <mxCell id="dPlTRqJiR5S6yLZnMPy2-62" value="client                      :Client" style="text;align=left;verticalAlign=top;spacingLeft=4;spacingRight=4;overflow=hidden;rotatable=0;points=[[0,0.5],[1,0.5]];portConstraint=eastwest;rounded=0;shadow=0;html=0;labelBackgroundColor=none;fontColor=#393C56;" vertex="1" parent="dPlTRqJiR5S6yLZnMPy2-57">
          <mxGeometry y="130" width="219" height="26" as="geometry" />
        </mxCell>
        <mxCell id="dPlTRqJiR5S6yLZnMPy2-63" value="equipment        :  Equipment " style="text;align=left;verticalAlign=top;spacingLeft=4;spacingRight=4;overflow=hidden;rotatable=0;points=[[0,0.5],[1,0.5]];portConstraint=eastwest;rounded=0;shadow=0;html=0;labelBackgroundColor=none;fontColor=#393C56;" vertex="1" parent="dPlTRqJiR5S6yLZnMPy2-57">
          <mxGeometry y="156" width="219" height="26" as="geometry" />
        </mxCell>
        <mxCell id="dPlTRqJiR5S6yLZnMPy2-64" value="technicien        :Technicien" style="text;align=left;verticalAlign=top;spacingLeft=4;spacingRight=4;overflow=hidden;rotatable=0;points=[[0,0.5],[1,0.5]];portConstraint=eastwest;rounded=0;shadow=0;html=0;labelBackgroundColor=none;fontColor=#393C56;" vertex="1" parent="dPlTRqJiR5S6yLZnMPy2-57">
          <mxGeometry y="182" width="219" height="26" as="geometry" />
        </mxCell>
        <mxCell id="dPlTRqJiR5S6yLZnMPy2-65" value="Commentaire       :String" style="text;align=left;verticalAlign=top;spacingLeft=4;spacingRight=4;overflow=hidden;rotatable=0;points=[[0,0.5],[1,0.5]];portConstraint=eastwest;rounded=0;shadow=0;html=0;labelBackgroundColor=none;fontColor=#393C56;" vertex="1" parent="dPlTRqJiR5S6yLZnMPy2-57">
          <mxGeometry y="208" width="219" height="26" as="geometry" />
        </mxCell>
        <mxCell id="dPlTRqJiR5S6yLZnMPy2-66" value="Statut:               :String" style="text;align=left;verticalAlign=top;spacingLeft=4;spacingRight=4;overflow=hidden;rotatable=0;points=[[0,0.5],[1,0.5]];portConstraint=eastwest;rounded=0;shadow=0;html=0;labelBackgroundColor=none;fontColor=#393C56;" vertex="1" parent="dPlTRqJiR5S6yLZnMPy2-57">
          <mxGeometry y="234" width="219" height="26" as="geometry" />
        </mxCell>
        <mxCell id="dPlTRqJiR5S6yLZnMPy2-67" value="- Photos     :String" style="text;align=left;verticalAlign=top;spacingLeft=4;spacingRight=4;overflow=hidden;rotatable=0;points=[[0,0.5],[1,0.5]];portConstraint=eastwest;rounded=0;shadow=0;html=0;labelBackgroundColor=none;fontColor=#393C56;" vertex="1" parent="dPlTRqJiR5S6yLZnMPy2-57">
          <mxGeometry y="260" width="219" height="26" as="geometry" />
        </mxCell>
        <mxCell id="dPlTRqJiR5S6yLZnMPy2-68" style="line;html=1;strokeWidth=1;align=left;verticalAlign=middle;spacingTop=-1;spacingLeft=3;spacingRight=3;rotatable=0;labelPosition=right;points=[];portConstraint=eastwest;labelBackgroundColor=none;fillColor=#F2CC8F;strokeColor=#E07A5F;fontColor=#393C56;" vertex="1" parent="dPlTRqJiR5S6yLZnMPy2-57">
          <mxGeometry y="286" width="219" height="28" as="geometry" />
        </mxCell>
        <mxCell id="dPlTRqJiR5S6yLZnMPy2-69" value="+Ajouter()" style="text;html=1;align=center;verticalAlign=middle;resizable=0;points=[];autosize=1;strokeColor=none;fillColor=none;fontSize=16;" vertex="1" parent="dPlTRqJiR5S6yLZnMPy2-57">
          <mxGeometry y="314" width="219" height="31" as="geometry" />
        </mxCell>
        <mxCell id="dPlTRqJiR5S6yLZnMPy2-70" value="+Modifier ()" style="text;html=1;align=center;verticalAlign=middle;resizable=0;points=[];autosize=1;strokeColor=none;fillColor=none;fontSize=16;" vertex="1" parent="dPlTRqJiR5S6yLZnMPy2-57">
          <mxGeometry y="345" width="219" height="31" as="geometry" />
        </mxCell>
        <mxCell id="dPlTRqJiR5S6yLZnMPy2-71" value="+Supprimer ()" style="text;html=1;align=center;verticalAlign=middle;resizable=0;points=[];autosize=1;strokeColor=none;fillColor=none;fontSize=16;" vertex="1" parent="dPlTRqJiR5S6yLZnMPy2-57">
          <mxGeometry y="376" width="219" height="31" as="geometry" />
        </mxCell>
        <mxCell id="dPlTRqJiR5S6yLZnMPy2-72" value="Client&#xa;" style="swimlane;fontStyle=2;align=center;verticalAlign=top;childLayout=stackLayout;horizontal=1;startSize=26;horizontalStack=0;resizeParent=1;resizeLast=0;collapsible=1;marginBottom=0;rounded=0;shadow=0;strokeWidth=1;fillColor=#F2CC8F;fontColor=#393C56;strokeColor=#E07A5F;labelBackgroundColor=none;" vertex="1" parent="1">
          <mxGeometry x="-354" y="-357" width="160" height="242" as="geometry">
            <mxRectangle x="230" y="140" width="160" height="26" as="alternateBounds" />
          </mxGeometry>
        </mxCell>
        <mxCell id="dPlTRqJiR5S6yLZnMPy2-73" value="- Entreprise         :String" style="text;align=left;verticalAlign=top;spacingLeft=4;spacingRight=4;overflow=hidden;rotatable=0;points=[[0,0.5],[1,0.5]];portConstraint=eastwest;labelBackgroundColor=none;fontColor=#393C56;" vertex="1" parent="dPlTRqJiR5S6yLZnMPy2-72">
          <mxGeometry y="26" width="160" height="26" as="geometry" />
        </mxCell>
        <mxCell id="dPlTRqJiR5S6yLZnMPy2-74" value="- Matricule fiscal   :String" style="text;align=left;verticalAlign=top;spacingLeft=4;spacingRight=4;overflow=hidden;rotatable=0;points=[[0,0.5],[1,0.5]];portConstraint=eastwest;rounded=0;shadow=0;html=0;labelBackgroundColor=none;fontColor=#393C56;" vertex="1" parent="dPlTRqJiR5S6yLZnMPy2-72">
          <mxGeometry y="52" width="160" height="26" as="geometry" />
        </mxCell>
        <mxCell id="dPlTRqJiR5S6yLZnMPy2-75" value="" style="line;html=1;strokeWidth=1;align=left;verticalAlign=middle;spacingTop=-1;spacingLeft=3;spacingRight=3;rotatable=0;labelPosition=right;points=[];portConstraint=eastwest;labelBackgroundColor=none;fillColor=#F2CC8F;strokeColor=#E07A5F;fontColor=#393C56;" vertex="1" parent="dPlTRqJiR5S6yLZnMPy2-72">
          <mxGeometry y="78" width="160" height="8" as="geometry" />
        </mxCell>
        <mxCell id="dPlTRqJiR5S6yLZnMPy2-76" value="+ S&#39;inscrire ()" style="text;align=left;verticalAlign=top;spacingLeft=4;spacingRight=4;overflow=hidden;rotatable=0;points=[[0,0.5],[1,0.5]];portConstraint=eastwest;labelBackgroundColor=none;fontColor=#393C56;" vertex="1" parent="dPlTRqJiR5S6yLZnMPy2-72">
          <mxGeometry y="86" width="160" height="26" as="geometry" />
        </mxCell>
        <mxCell id="dPlTRqJiR5S6yLZnMPy2-77" value="+ Ajouter_Intervention ()" style="text;align=left;verticalAlign=top;spacingLeft=4;spacingRight=4;overflow=hidden;rotatable=0;points=[[0,0.5],[1,0.5]];portConstraint=eastwest;labelBackgroundColor=none;fontColor=#393C56;" vertex="1" parent="dPlTRqJiR5S6yLZnMPy2-72">
          <mxGeometry y="112" width="160" height="26" as="geometry" />
        </mxCell>
        <mxCell id="dPlTRqJiR5S6yLZnMPy2-78" value="+ Payer_Facture()" style="text;align=left;verticalAlign=top;spacingLeft=4;spacingRight=4;overflow=hidden;rotatable=0;points=[[0,0.5],[1,0.5]];portConstraint=eastwest;labelBackgroundColor=none;fontColor=#393C56;" vertex="1" parent="dPlTRqJiR5S6yLZnMPy2-72">
          <mxGeometry y="138" width="160" height="26" as="geometry" />
        </mxCell>
        <mxCell id="dPlTRqJiR5S6yLZnMPy2-79" value="+ Signer_Contrat ()" style="text;align=left;verticalAlign=top;spacingLeft=4;spacingRight=4;overflow=hidden;rotatable=0;points=[[0,0.5],[1,0.5]];portConstraint=eastwest;labelBackgroundColor=none;fontColor=#393C56;" vertex="1" parent="dPlTRqJiR5S6yLZnMPy2-72">
          <mxGeometry y="164" width="160" height="26" as="geometry" />
        </mxCell>
        <mxCell id="dPlTRqJiR5S6yLZnMPy2-80" value="+ Modifier_Compte()" style="text;align=left;verticalAlign=top;spacingLeft=4;spacingRight=4;overflow=hidden;rotatable=0;points=[[0,0.5],[1,0.5]];portConstraint=eastwest;labelBackgroundColor=none;fontColor=#393C56;" vertex="1" parent="dPlTRqJiR5S6yLZnMPy2-72">
          <mxGeometry y="190" width="160" height="26" as="geometry" />
        </mxCell>
        <mxCell id="dPlTRqJiR5S6yLZnMPy2-81" value="+ Supprimer_Compte" style="text;align=left;verticalAlign=top;spacingLeft=4;spacingRight=4;overflow=hidden;rotatable=0;points=[[0,0.5],[1,0.5]];portConstraint=eastwest;labelBackgroundColor=none;fontColor=#393C56;" vertex="1" parent="dPlTRqJiR5S6yLZnMPy2-72">
          <mxGeometry y="216" width="160" height="26" as="geometry" />
        </mxCell>
        <mxCell id="dPlTRqJiR5S6yLZnMPy2-82" value="Emploie" style="swimlane;fontStyle=2;align=center;verticalAlign=top;childLayout=stackLayout;horizontal=1;startSize=26;horizontalStack=0;resizeParent=1;resizeLast=0;collapsible=1;marginBottom=0;rounded=0;shadow=0;strokeWidth=1;fillColor=#F2CC8F;fontColor=#393C56;strokeColor=#E07A5F;labelBackgroundColor=none;" vertex="1" parent="1">
          <mxGeometry x="-16" y="-480" width="160" height="140" as="geometry">
            <mxRectangle x="230" y="140" width="160" height="26" as="alternateBounds" />
          </mxGeometry>
        </mxCell>
        <mxCell id="dPlTRqJiR5S6yLZnMPy2-83" value="Name" style="text;align=left;verticalAlign=top;spacingLeft=4;spacingRight=4;overflow=hidden;rotatable=0;points=[[0,0.5],[1,0.5]];portConstraint=eastwest;labelBackgroundColor=none;fontColor=#393C56;" vertex="1" parent="dPlTRqJiR5S6yLZnMPy2-82">
          <mxGeometry y="26" width="160" height="26" as="geometry" />
        </mxCell>
        <mxCell id="dPlTRqJiR5S6yLZnMPy2-84" value="Email Address" style="text;align=left;verticalAlign=top;spacingLeft=4;spacingRight=4;overflow=hidden;rotatable=0;points=[[0,0.5],[1,0.5]];portConstraint=eastwest;rounded=0;shadow=0;html=0;labelBackgroundColor=none;fontColor=#393C56;" vertex="1" parent="dPlTRqJiR5S6yLZnMPy2-82">
          <mxGeometry y="52" width="160" height="26" as="geometry" />
        </mxCell>
        <mxCell id="dPlTRqJiR5S6yLZnMPy2-85" value="Phone Number" style="text;align=left;verticalAlign=top;spacingLeft=4;spacingRight=4;overflow=hidden;rotatable=0;points=[[0,0.5],[1,0.5]];portConstraint=eastwest;rounded=0;shadow=0;html=0;labelBackgroundColor=none;fontColor=#393C56;" vertex="1" parent="dPlTRqJiR5S6yLZnMPy2-82">
          <mxGeometry y="78" width="160" height="26" as="geometry" />
        </mxCell>
        <mxCell id="dPlTRqJiR5S6yLZnMPy2-86" value="" style="line;html=1;strokeWidth=1;align=left;verticalAlign=middle;spacingTop=-1;spacingLeft=3;spacingRight=3;rotatable=0;labelPosition=right;points=[];portConstraint=eastwest;labelBackgroundColor=none;fillColor=#F2CC8F;strokeColor=#E07A5F;fontColor=#393C56;" vertex="1" parent="dPlTRqJiR5S6yLZnMPy2-82">
          <mxGeometry y="104" width="160" height="8" as="geometry" />
        </mxCell>
        <mxCell id="dPlTRqJiR5S6yLZnMPy2-87" value="Purchase Parking Pass" style="text;align=left;verticalAlign=top;spacingLeft=4;spacingRight=4;overflow=hidden;rotatable=0;points=[[0,0.5],[1,0.5]];portConstraint=eastwest;labelBackgroundColor=none;fontColor=#393C56;" vertex="1" parent="dPlTRqJiR5S6yLZnMPy2-82">
          <mxGeometry y="112" width="160" height="26" as="geometry" />
        </mxCell>
        <mxCell id="dPlTRqJiR5S6yLZnMPy2-88" style="edgeStyle=none;rounded=0;orthogonalLoop=1;jettySize=auto;html=1;endArrow=block;endFill=0;labelBackgroundColor=none;strokeColor=#E07A5F;fontColor=default;" edge="1" parent="1" source="dPlTRqJiR5S6yLZnMPy2-82">
          <mxGeometry relative="1" as="geometry">
            <mxPoint x="195" y="-67" as="targetPoint" />
            <Array as="points">
              <mxPoint x="54" y="-67" />
            </Array>
          </mxGeometry>
        </mxCell>
        <mxCell id="dPlTRqJiR5S6yLZnMPy2-89" value="" style="endArrow=none;html=1;rounded=0;exitX=0;exitY=0.5;exitDx=0;exitDy=0;entryX=0.5;entryY=1;entryDx=0;entryDy=0;edgeStyle=orthogonalEdgeStyle;labelBackgroundColor=none;strokeColor=#E07A5F;fontColor=default;" edge="1" parent="1" source="dPlTRqJiR5S6yLZnMPy2-31" target="dPlTRqJiR5S6yLZnMPy2-42">
          <mxGeometry width="50" height="50" relative="1" as="geometry">
            <mxPoint x="360" y="340" as="sourcePoint" />
            <mxPoint x="410" y="290" as="targetPoint" />
          </mxGeometry>
        </mxCell>
        <mxCell id="dPlTRqJiR5S6yLZnMPy2-90" value="gérer&amp;nbsp;" style="edgeLabel;html=1;align=center;verticalAlign=middle;resizable=0;points=[];fontSize=12;" connectable="0" vertex="1" parent="dPlTRqJiR5S6yLZnMPy2-89">
          <mxGeometry x="0.117" y="3" relative="1" as="geometry">
            <mxPoint x="1" as="offset" />
          </mxGeometry>
        </mxCell>
        <mxCell id="dPlTRqJiR5S6yLZnMPy2-91" value="" style="endArrow=none;html=1;rounded=0;entryX=1;entryY=0.25;entryDx=0;entryDy=0;exitX=0.5;exitY=0;exitDx=0;exitDy=0;edgeStyle=orthogonalEdgeStyle;labelBackgroundColor=none;strokeColor=#E07A5F;fontColor=default;" edge="1" parent="1" source="dPlTRqJiR5S6yLZnMPy2-49" target="dPlTRqJiR5S6yLZnMPy2-38">
          <mxGeometry width="50" height="50" relative="1" as="geometry">
            <mxPoint x="700" y="220" as="sourcePoint" />
            <mxPoint x="750" y="170" as="targetPoint" />
          </mxGeometry>
        </mxCell>
        <mxCell id="dPlTRqJiR5S6yLZnMPy2-92" value="Contrat" style="swimlane;fontStyle=2;align=center;verticalAlign=top;childLayout=stackLayout;horizontal=1;startSize=26;horizontalStack=0;resizeParent=1;resizeLast=0;collapsible=1;marginBottom=0;rounded=0;shadow=0;strokeWidth=1;fillColor=#F2CC8F;fontColor=#393C56;strokeColor=#E07A5F;labelBackgroundColor=none;" vertex="1" parent="1">
          <mxGeometry x="-16" y="895" width="160" height="138" as="geometry">
            <mxRectangle x="230" y="140" width="160" height="26" as="alternateBounds" />
          </mxGeometry>
        </mxCell>
        <mxCell id="dPlTRqJiR5S6yLZnMPy2-93" value="Name" style="text;align=left;verticalAlign=top;spacingLeft=4;spacingRight=4;overflow=hidden;rotatable=0;points=[[0,0.5],[1,0.5]];portConstraint=eastwest;labelBackgroundColor=none;fontColor=#393C56;" vertex="1" parent="dPlTRqJiR5S6yLZnMPy2-92">
          <mxGeometry y="26" width="160" height="26" as="geometry" />
        </mxCell>
        <mxCell id="dPlTRqJiR5S6yLZnMPy2-94" value="Phone Number" style="text;align=left;verticalAlign=top;spacingLeft=4;spacingRight=4;overflow=hidden;rotatable=0;points=[[0,0.5],[1,0.5]];portConstraint=eastwest;rounded=0;shadow=0;html=0;labelBackgroundColor=none;fontColor=#393C56;" vertex="1" parent="dPlTRqJiR5S6yLZnMPy2-92">
          <mxGeometry y="52" width="160" height="26" as="geometry" />
        </mxCell>
        <mxCell id="dPlTRqJiR5S6yLZnMPy2-95" value="Email Address" style="text;align=left;verticalAlign=top;spacingLeft=4;spacingRight=4;overflow=hidden;rotatable=0;points=[[0,0.5],[1,0.5]];portConstraint=eastwest;rounded=0;shadow=0;html=0;labelBackgroundColor=none;fontColor=#393C56;" vertex="1" parent="dPlTRqJiR5S6yLZnMPy2-92">
          <mxGeometry y="78" width="160" height="26" as="geometry" />
        </mxCell>
        <mxCell id="dPlTRqJiR5S6yLZnMPy2-96" value="" style="line;html=1;strokeWidth=1;align=left;verticalAlign=middle;spacingTop=-1;spacingLeft=3;spacingRight=3;rotatable=0;labelPosition=right;points=[];portConstraint=eastwest;labelBackgroundColor=none;fillColor=#F2CC8F;strokeColor=#E07A5F;fontColor=#393C56;" vertex="1" parent="dPlTRqJiR5S6yLZnMPy2-92">
          <mxGeometry y="104" width="160" height="8" as="geometry" />
        </mxCell>
        <mxCell id="dPlTRqJiR5S6yLZnMPy2-97" value="Purchase Parking Pass" style="text;align=left;verticalAlign=top;spacingLeft=4;spacingRight=4;overflow=hidden;rotatable=0;points=[[0,0.5],[1,0.5]];portConstraint=eastwest;labelBackgroundColor=none;fontColor=#393C56;" vertex="1" parent="dPlTRqJiR5S6yLZnMPy2-92">
          <mxGeometry y="112" width="160" height="26" as="geometry" />
        </mxCell>
        <mxCell id="dPlTRqJiR5S6yLZnMPy2-98" value="Facture" style="swimlane;fontStyle=2;align=center;verticalAlign=top;childLayout=stackLayout;horizontal=1;startSize=26;horizontalStack=0;resizeParent=1;resizeLast=0;collapsible=1;marginBottom=0;rounded=0;shadow=0;strokeWidth=1;fillColor=#F2CC8F;fontColor=#393C56;strokeColor=#E07A5F;labelBackgroundColor=none;" vertex="1" parent="1">
          <mxGeometry x="200" y="850" width="160" height="138" as="geometry">
            <mxRectangle x="230" y="140" width="160" height="26" as="alternateBounds" />
          </mxGeometry>
        </mxCell>
        <mxCell id="dPlTRqJiR5S6yLZnMPy2-99" value="Name" style="text;align=left;verticalAlign=top;spacingLeft=4;spacingRight=4;overflow=hidden;rotatable=0;points=[[0,0.5],[1,0.5]];portConstraint=eastwest;labelBackgroundColor=none;fontColor=#393C56;" vertex="1" parent="dPlTRqJiR5S6yLZnMPy2-98">
          <mxGeometry y="26" width="160" height="26" as="geometry" />
        </mxCell>
        <mxCell id="dPlTRqJiR5S6yLZnMPy2-100" value="Phone Number" style="text;align=left;verticalAlign=top;spacingLeft=4;spacingRight=4;overflow=hidden;rotatable=0;points=[[0,0.5],[1,0.5]];portConstraint=eastwest;rounded=0;shadow=0;html=0;labelBackgroundColor=none;fontColor=#393C56;" vertex="1" parent="dPlTRqJiR5S6yLZnMPy2-98">
          <mxGeometry y="52" width="160" height="26" as="geometry" />
        </mxCell>
        <mxCell id="dPlTRqJiR5S6yLZnMPy2-101" value="Email Address" style="text;align=left;verticalAlign=top;spacingLeft=4;spacingRight=4;overflow=hidden;rotatable=0;points=[[0,0.5],[1,0.5]];portConstraint=eastwest;rounded=0;shadow=0;html=0;labelBackgroundColor=none;fontColor=#393C56;" vertex="1" parent="dPlTRqJiR5S6yLZnMPy2-98">
          <mxGeometry y="78" width="160" height="26" as="geometry" />
        </mxCell>
        <mxCell id="dPlTRqJiR5S6yLZnMPy2-102" value="" style="line;html=1;strokeWidth=1;align=left;verticalAlign=middle;spacingTop=-1;spacingLeft=3;spacingRight=3;rotatable=0;labelPosition=right;points=[];portConstraint=eastwest;labelBackgroundColor=none;fillColor=#F2CC8F;strokeColor=#E07A5F;fontColor=#393C56;" vertex="1" parent="dPlTRqJiR5S6yLZnMPy2-98">
          <mxGeometry y="104" width="160" height="8" as="geometry" />
        </mxCell>
        <mxCell id="dPlTRqJiR5S6yLZnMPy2-103" value="Purchase Parking Pass" style="text;align=left;verticalAlign=top;spacingLeft=4;spacingRight=4;overflow=hidden;rotatable=0;points=[[0,0.5],[1,0.5]];portConstraint=eastwest;labelBackgroundColor=none;fontColor=#393C56;" vertex="1" parent="dPlTRqJiR5S6yLZnMPy2-98">
          <mxGeometry y="112" width="160" height="26" as="geometry" />
        </mxCell>
        <mxCell id="dPlTRqJiR5S6yLZnMPy2-104" value="Devis" style="swimlane;fontStyle=2;align=center;verticalAlign=top;childLayout=stackLayout;horizontal=1;startSize=26;horizontalStack=0;resizeParent=1;resizeLast=0;collapsible=1;marginBottom=0;rounded=0;shadow=0;strokeWidth=1;fillColor=#F2CC8F;fontColor=#393C56;strokeColor=#E07A5F;labelBackgroundColor=none;" vertex="1" parent="1">
          <mxGeometry x="430" y="760" width="160" height="138" as="geometry">
            <mxRectangle x="230" y="140" width="160" height="26" as="alternateBounds" />
          </mxGeometry>
        </mxCell>
        <mxCell id="dPlTRqJiR5S6yLZnMPy2-105" value="Name" style="text;align=left;verticalAlign=top;spacingLeft=4;spacingRight=4;overflow=hidden;rotatable=0;points=[[0,0.5],[1,0.5]];portConstraint=eastwest;labelBackgroundColor=none;fontColor=#393C56;" vertex="1" parent="dPlTRqJiR5S6yLZnMPy2-104">
          <mxGeometry y="26" width="160" height="26" as="geometry" />
        </mxCell>
        <mxCell id="dPlTRqJiR5S6yLZnMPy2-106" value="Phone Number" style="text;align=left;verticalAlign=top;spacingLeft=4;spacingRight=4;overflow=hidden;rotatable=0;points=[[0,0.5],[1,0.5]];portConstraint=eastwest;rounded=0;shadow=0;html=0;labelBackgroundColor=none;fontColor=#393C56;" vertex="1" parent="dPlTRqJiR5S6yLZnMPy2-104">
          <mxGeometry y="52" width="160" height="26" as="geometry" />
        </mxCell>
        <mxCell id="dPlTRqJiR5S6yLZnMPy2-107" value="Email Address" style="text;align=left;verticalAlign=top;spacingLeft=4;spacingRight=4;overflow=hidden;rotatable=0;points=[[0,0.5],[1,0.5]];portConstraint=eastwest;rounded=0;shadow=0;html=0;labelBackgroundColor=none;fontColor=#393C56;" vertex="1" parent="dPlTRqJiR5S6yLZnMPy2-104">
          <mxGeometry y="78" width="160" height="26" as="geometry" />
        </mxCell>
        <mxCell id="dPlTRqJiR5S6yLZnMPy2-108" value="" style="line;html=1;strokeWidth=1;align=left;verticalAlign=middle;spacingTop=-1;spacingLeft=3;spacingRight=3;rotatable=0;labelPosition=right;points=[];portConstraint=eastwest;labelBackgroundColor=none;fillColor=#F2CC8F;strokeColor=#E07A5F;fontColor=#393C56;" vertex="1" parent="dPlTRqJiR5S6yLZnMPy2-104">
          <mxGeometry y="104" width="160" height="8" as="geometry" />
        </mxCell>
        <mxCell id="dPlTRqJiR5S6yLZnMPy2-109" value="Purchase Parking Pass" style="text;align=left;verticalAlign=top;spacingLeft=4;spacingRight=4;overflow=hidden;rotatable=0;points=[[0,0.5],[1,0.5]];portConstraint=eastwest;labelBackgroundColor=none;fontColor=#393C56;" vertex="1" parent="dPlTRqJiR5S6yLZnMPy2-104">
          <mxGeometry y="112" width="160" height="26" as="geometry" />
        </mxCell>
        <mxCell id="dPlTRqJiR5S6yLZnMPy2-110" value="Depot" style="swimlane;fontStyle=2;align=center;verticalAlign=top;childLayout=stackLayout;horizontal=1;startSize=26;horizontalStack=0;resizeParent=1;resizeLast=0;collapsible=1;marginBottom=0;rounded=0;shadow=0;strokeWidth=1;fillColor=#F2CC8F;fontColor=#393C56;strokeColor=#E07A5F;labelBackgroundColor=none;" vertex="1" parent="1">
          <mxGeometry x="721" y="702" width="160" height="138" as="geometry">
            <mxRectangle x="230" y="140" width="160" height="26" as="alternateBounds" />
          </mxGeometry>
        </mxCell>
        <mxCell id="dPlTRqJiR5S6yLZnMPy2-111" value="Name" style="text;align=left;verticalAlign=top;spacingLeft=4;spacingRight=4;overflow=hidden;rotatable=0;points=[[0,0.5],[1,0.5]];portConstraint=eastwest;labelBackgroundColor=none;fontColor=#393C56;" vertex="1" parent="dPlTRqJiR5S6yLZnMPy2-110">
          <mxGeometry y="26" width="160" height="26" as="geometry" />
        </mxCell>
        <mxCell id="dPlTRqJiR5S6yLZnMPy2-112" value="Phone Number" style="text;align=left;verticalAlign=top;spacingLeft=4;spacingRight=4;overflow=hidden;rotatable=0;points=[[0,0.5],[1,0.5]];portConstraint=eastwest;rounded=0;shadow=0;html=0;labelBackgroundColor=none;fontColor=#393C56;" vertex="1" parent="dPlTRqJiR5S6yLZnMPy2-110">
          <mxGeometry y="52" width="160" height="26" as="geometry" />
        </mxCell>
        <mxCell id="dPlTRqJiR5S6yLZnMPy2-113" value="Email Address" style="text;align=left;verticalAlign=top;spacingLeft=4;spacingRight=4;overflow=hidden;rotatable=0;points=[[0,0.5],[1,0.5]];portConstraint=eastwest;rounded=0;shadow=0;html=0;labelBackgroundColor=none;fontColor=#393C56;" vertex="1" parent="dPlTRqJiR5S6yLZnMPy2-110">
          <mxGeometry y="78" width="160" height="26" as="geometry" />
        </mxCell>
        <mxCell id="dPlTRqJiR5S6yLZnMPy2-114" value="" style="line;html=1;strokeWidth=1;align=left;verticalAlign=middle;spacingTop=-1;spacingLeft=3;spacingRight=3;rotatable=0;labelPosition=right;points=[];portConstraint=eastwest;labelBackgroundColor=none;fillColor=#F2CC8F;strokeColor=#E07A5F;fontColor=#393C56;" vertex="1" parent="dPlTRqJiR5S6yLZnMPy2-110">
          <mxGeometry y="104" width="160" height="8" as="geometry" />
        </mxCell>
        <mxCell id="dPlTRqJiR5S6yLZnMPy2-115" value="Purchase Parking Pass" style="text;align=left;verticalAlign=top;spacingLeft=4;spacingRight=4;overflow=hidden;rotatable=0;points=[[0,0.5],[1,0.5]];portConstraint=eastwest;labelBackgroundColor=none;fontColor=#393C56;" vertex="1" parent="dPlTRqJiR5S6yLZnMPy2-110">
          <mxGeometry y="112" width="160" height="26" as="geometry" />
        </mxCell>
        <mxCell id="dPlTRqJiR5S6yLZnMPy2-116" value="Equipment " style="swimlane;fontStyle=2;align=center;verticalAlign=top;childLayout=stackLayout;horizontal=1;startSize=26;horizontalStack=0;resizeParent=1;resizeLast=0;collapsible=1;marginBottom=0;rounded=0;shadow=0;strokeWidth=1;fillColor=#F2CC8F;fontColor=#393C56;strokeColor=#E07A5F;labelBackgroundColor=none;" vertex="1" parent="1">
          <mxGeometry x="859" y="-538" width="160" height="138" as="geometry">
            <mxRectangle x="230" y="140" width="160" height="26" as="alternateBounds" />
          </mxGeometry>
        </mxCell>
        <mxCell id="dPlTRqJiR5S6yLZnMPy2-120" value="" style="line;html=1;strokeWidth=1;align=left;verticalAlign=middle;spacingTop=-1;spacingLeft=3;spacingRight=3;rotatable=0;labelPosition=right;points=[];portConstraint=eastwest;labelBackgroundColor=none;fillColor=#F2CC8F;strokeColor=#E07A5F;fontColor=#393C56;" vertex="1" parent="dPlTRqJiR5S6yLZnMPy2-116">
          <mxGeometry y="26" width="160" height="8" as="geometry" />
        </mxCell>
        <mxCell id="dPlTRqJiR5S6yLZnMPy2-122" style="edgeStyle=orthogonalEdgeStyle;rounded=0;orthogonalLoop=1;jettySize=auto;html=1;exitX=0;exitY=0.5;exitDx=0;exitDy=0;entryX=0.625;entryY=0.012;entryDx=0;entryDy=0;entryPerimeter=0;endArrow=none;endFill=0;labelBackgroundColor=none;strokeColor=#E07A5F;fontColor=default;" edge="1" parent="1" target="dPlTRqJiR5S6yLZnMPy2-38">
          <mxGeometry relative="1" as="geometry">
            <mxPoint x="859" y="-473" as="sourcePoint" />
          </mxGeometry>
        </mxCell>
        <mxCell id="dPlTRqJiR5S6yLZnMPy2-123" value="Material" style="swimlane;fontStyle=2;align=center;verticalAlign=top;childLayout=stackLayout;horizontal=1;startSize=26;horizontalStack=0;resizeParent=1;resizeLast=0;collapsible=1;marginBottom=0;rounded=0;shadow=0;strokeWidth=1;fillColor=#F2CC8F;fontColor=#393C56;strokeColor=#E07A5F;labelBackgroundColor=none;" vertex="1" parent="1">
          <mxGeometry x="667" y="447" width="160" height="138" as="geometry">
            <mxRectangle x="230" y="140" width="160" height="26" as="alternateBounds" />
          </mxGeometry>
        </mxCell>
        <mxCell id="dPlTRqJiR5S6yLZnMPy2-124" value="Name" style="text;align=left;verticalAlign=top;spacingLeft=4;spacingRight=4;overflow=hidden;rotatable=0;points=[[0,0.5],[1,0.5]];portConstraint=eastwest;labelBackgroundColor=none;fontColor=#393C56;" vertex="1" parent="dPlTRqJiR5S6yLZnMPy2-123">
          <mxGeometry y="26" width="160" height="26" as="geometry" />
        </mxCell>
        <mxCell id="dPlTRqJiR5S6yLZnMPy2-125" value="Phone Number" style="text;align=left;verticalAlign=top;spacingLeft=4;spacingRight=4;overflow=hidden;rotatable=0;points=[[0,0.5],[1,0.5]];portConstraint=eastwest;rounded=0;shadow=0;html=0;labelBackgroundColor=none;fontColor=#393C56;" vertex="1" parent="dPlTRqJiR5S6yLZnMPy2-123">
          <mxGeometry y="52" width="160" height="26" as="geometry" />
        </mxCell>
        <mxCell id="dPlTRqJiR5S6yLZnMPy2-126" value="Email Address" style="text;align=left;verticalAlign=top;spacingLeft=4;spacingRight=4;overflow=hidden;rotatable=0;points=[[0,0.5],[1,0.5]];portConstraint=eastwest;rounded=0;shadow=0;html=0;labelBackgroundColor=none;fontColor=#393C56;" vertex="1" parent="dPlTRqJiR5S6yLZnMPy2-123">
          <mxGeometry y="78" width="160" height="26" as="geometry" />
        </mxCell>
        <mxCell id="dPlTRqJiR5S6yLZnMPy2-127" value="" style="line;html=1;strokeWidth=1;align=left;verticalAlign=middle;spacingTop=-1;spacingLeft=3;spacingRight=3;rotatable=0;labelPosition=right;points=[];portConstraint=eastwest;labelBackgroundColor=none;fillColor=#F2CC8F;strokeColor=#E07A5F;fontColor=#393C56;" vertex="1" parent="dPlTRqJiR5S6yLZnMPy2-123">
          <mxGeometry y="104" width="160" height="8" as="geometry" />
        </mxCell>
        <mxCell id="dPlTRqJiR5S6yLZnMPy2-128" value="Purchase Parking Pass" style="text;align=left;verticalAlign=top;spacingLeft=4;spacingRight=4;overflow=hidden;rotatable=0;points=[[0,0.5],[1,0.5]];portConstraint=eastwest;labelBackgroundColor=none;fontColor=#393C56;" vertex="1" parent="dPlTRqJiR5S6yLZnMPy2-123">
          <mxGeometry y="112" width="160" height="26" as="geometry" />
        </mxCell>
        <mxCell id="dPlTRqJiR5S6yLZnMPy2-129" style="edgeStyle=orthogonalEdgeStyle;rounded=0;orthogonalLoop=1;jettySize=auto;html=1;endArrow=block;endFill=0;labelBackgroundColor=none;strokeColor=#E07A5F;fontColor=default;entryX=1.035;entryY=-0.308;entryDx=0;entryDy=0;entryPerimeter=0;exitX=1;exitY=0.5;exitDx=0;exitDy=0;" edge="1" parent="1" source="dPlTRqJiR5S6yLZnMPy2-32" target="dPlTRqJiR5S6yLZnMPy2-23">
          <mxGeometry relative="1" as="geometry">
            <mxPoint x="299.85499999999996" y="195" as="targetPoint" />
            <Array as="points">
              <mxPoint x="104" y="171" />
              <mxPoint x="611" y="171" />
              <mxPoint x="611" y="-76" />
            </Array>
            <mxPoint x="98.99999999999996" y="360.6120000000001" as="sourcePoint" />
          </mxGeometry>
        </mxCell>
        <mxCell id="dPlTRqJiR5S6yLZnMPy2-130" style="rounded=0;orthogonalLoop=1;jettySize=auto;html=1;entryX=0.529;entryY=1.269;entryDx=0;entryDy=0;fontSize=12;startSize=8;endSize=8;exitX=0;exitY=0.5;exitDx=0;exitDy=0;endArrow=diamondThin;endFill=1;startArrow=none;startFill=0;strokeWidth=1;fillColor=#ffe6cc;strokeColor=#d79b00;edgeStyle=orthogonalEdgeStyle;entryPerimeter=0;" edge="1" parent="1" source="dPlTRqJiR5S6yLZnMPy2-60">
          <mxGeometry relative="1" as="geometry">
            <mxPoint x="-121.6799999999999" y="621.7900000000002" as="sourcePoint" />
            <mxPoint x="-274.42000000000013" y="-109.99599999999985" as="targetPoint" />
            <Array as="points">
              <mxPoint x="-312" y="622" />
              <mxPoint x="-365" y="622" />
              <mxPoint x="-365" y="237" />
              <mxPoint x="-282" y="237" />
              <mxPoint x="-282" y="-60" />
              <mxPoint x="-277" y="-60" />
              <mxPoint x="-277" y="-56" />
              <mxPoint x="-274" y="-56" />
            </Array>
          </mxGeometry>
        </mxCell>
        <mxCell id="dPlTRqJiR5S6yLZnMPy2-131" value="demander&amp;nbsp;" style="edgeLabel;html=1;align=center;verticalAlign=middle;resizable=0;points=[];fontSize=12;" connectable="0" vertex="1" parent="dPlTRqJiR5S6yLZnMPy2-130">
          <mxGeometry x="0.0116" y="3" relative="1" as="geometry">
            <mxPoint as="offset" />
          </mxGeometry>
        </mxCell>
        <mxCell id="dPlTRqJiR5S6yLZnMPy2-132" value="&lt;font style=&quot;font-size: 11px;&quot;&gt;0..*&lt;/font&gt;" style="text;html=1;align=center;verticalAlign=middle;resizable=0;points=[];autosize=1;strokeColor=none;fillColor=none;fontSize=16;" vertex="1" parent="1">
          <mxGeometry x="-87" y="580.5" width="35" height="31" as="geometry" />
        </mxCell>
        <mxCell id="dPlTRqJiR5S6yLZnMPy2-133" value="&lt;font style=&quot;font-size: 11px;&quot;&gt;1..1&lt;/font&gt;" style="text;html=1;align=center;verticalAlign=middle;resizable=0;points=[];autosize=1;strokeColor=none;fillColor=none;fontSize=16;" vertex="1" parent="1">
          <mxGeometry x="159" y="518" width="36" height="31" as="geometry" />
        </mxCell>
        <mxCell id="dPlTRqJiR5S6yLZnMPy2-134" value="&lt;font style=&quot;font-size: 11px;&quot;&gt;1..1&lt;/font&gt;&lt;span style=&quot;color: rgba(0, 0, 0, 0); font-family: monospace; font-size: 0px; text-align: start;&quot;&gt;%3CmxGraphModel%3E%3Croot%3E%3CmxCell%20id%3D%220%22%2F%3E%3CmxCell%20id%3D%221%22%20parent%3D%220%22%2F%3E%3CmxCell%20id%3D%222%22%20value%3D%22%26lt%3Bfont%20style%3D%26quot%3Bfont-size%3A%2011px%3B%26quot%3B%26gt%3B0..*%26lt%3B%2Ffont%26gt%3B%22%20style%3D%22text%3Bhtml%3D1%3Balign%3Dcenter%3BverticalAlign%3Dmiddle%3Bresizable%3D0%3Bpoints%3D%5B%5D%3Bautosize%3D1%3BstrokeColor%3Dnone%3BfillColor%3Dnone%3BfontSize%3D16%3B%22%20vertex%3D%221%22%20parent%3D%221%22%3E%3CmxGeometry%20x%3D%228%22%20y%3D%22520%22%20width%3D%2235%22%20height%3D%2231%22%20as%3D%22geometry%22%2F%3E%3C%2FmxCell%3E%3C%2Froot%3E%3C%2FmxGraphModel%3E&lt;/span&gt;" style="text;html=1;align=center;verticalAlign=middle;resizable=0;points=[];autosize=1;strokeColor=none;fillColor=none;fontSize=16;" vertex="1" parent="1">
          <mxGeometry x="-136" y="247" width="36" height="31" as="geometry" />
        </mxCell>
        <mxCell id="dPlTRqJiR5S6yLZnMPy2-136" value="&lt;font style=&quot;font-size: 11px;&quot;&gt;1..1&lt;/font&gt;" style="text;html=1;align=center;verticalAlign=middle;resizable=0;points=[];autosize=1;strokeColor=none;fillColor=none;fontSize=16;" vertex="1" parent="1">
          <mxGeometry x="11" y="474" width="36" height="31" as="geometry" />
        </mxCell>
        <mxCell id="dPlTRqJiR5S6yLZnMPy2-137" value="&lt;font style=&quot;font-size: 11px;&quot;&gt;0..*&lt;/font&gt;" style="text;html=1;align=center;verticalAlign=middle;resizable=0;points=[];autosize=1;strokeColor=none;fillColor=none;fontSize=16;" vertex="1" parent="1">
          <mxGeometry x="-128" y="515" width="35" height="31" as="geometry" />
        </mxCell>
      </root>
    </mxGraphModel>
  </diagram>
</mxfile>
